<svg width="163" height="65" viewBox="0 0 163 65" fill="none" xmlns="http://www.w3.org/2000/svg">
<path d="M32.0634 0.459997C38.3634 0.459997 43.8534 1.81 48.5334 4.51C53.2734 7.21 56.9034 10.99 59.4234 15.85C61.9434 20.65 63.2034 26.17 63.2034 32.41C63.2034 38.71 61.9434 44.29 59.4234 49.15C56.9034 53.95 53.2734 57.7 48.5334 60.4C43.8534 63.1 38.3634 64.45 32.0634 64.45C25.7634 64.45 20.2434 63.1 15.5034 60.4C10.8234 57.7 7.19336 53.95 4.61336 49.15C2.09336 44.29 0.83336 38.71 0.83336 32.41C0.83336 26.17 2.09336 20.65 4.61336 15.85C7.19336 10.99 10.8234 7.21 15.5034 4.51C20.2434 1.81 25.7634 0.459997 32.0634 0.459997ZM26.3934 9.19C25.3734 10.99 24.7134 13.72 24.4134 17.38C24.1734 19.66 24.0534 24.43 24.0534 31.69L39.2634 14.05C38.9034 12.07 38.3634 10.45 37.6434 9.19C36.4434 6.91 34.5834 5.77 32.0634 5.77C29.5434 5.77 27.6534 6.91 26.3934 9.19ZM37.6434 55.72C38.6634 53.92 39.3234 51.19 39.6234 47.53C39.9234 44.65 40.0734 39.94 40.0734 33.4L24.8634 51.13C25.2234 53.17 25.7334 54.7 26.3934 55.72C27.6534 58 29.5434 59.14 32.0634 59.14C34.5834 59.14 36.4434 58 37.6434 55.72ZM97.885 64.45C87.025 64.45 79.255 62.86 74.575 59.68C69.955 56.5 67.645 51.64 67.645 45.1V0.999996H102.025V45.1C102.025 49.36 102.955 52.48 104.815 54.46C106.735 56.38 109.255 57.34 112.375 57.34C119.335 57.34 122.815 53.26 122.815 45.1V0.999996H128.125V45.1C128.125 50.2 127.045 54.16 124.885 56.98C122.725 59.74 119.485 61.69 115.165 62.83C110.845 63.91 105.085 64.45 97.885 64.45ZM133.124 0.999996H162.464V64H133.124V0.999996Z" fill="#D4322C"/>
</svg>
