<svg width="152" height="66" viewBox="0 0 152 66" fill="none" xmlns="http://www.w3.org/2000/svg">
<path d="M23.0527 0.0549945C30.4927 0.0549945 36.1027 2.93499 39.8827 8.695C43.6927 14.425 45.5977 22.42 45.5977 32.68C45.5977 42.97 43.6927 51.025 39.8827 56.845C36.1027 62.635 30.4927 65.53 23.0527 65.53C15.5527 65.53 9.91274 62.635 6.13273 56.845C2.38273 51.025 0.507735 42.97 0.507735 32.68C0.507735 22.42 2.38273 14.425 6.13273 8.695C9.91274 2.93499 15.5527 0.0549945 23.0527 0.0549945ZM23.0527 10.36C19.8727 10.36 17.5477 12.07 16.0777 15.49C14.6077 18.88 13.8727 24.61 13.8727 32.68C13.8727 37.36 14.0077 41.185 14.2777 44.155C14.5777 47.095 15.0727 49.375 15.7627 50.995C16.4527 52.615 17.3827 53.74 18.5527 54.37C19.7527 54.97 21.2527 55.27 23.0527 55.27C25.1827 55.27 26.9077 54.55 28.2277 53.11C29.5777 51.67 30.5677 49.3 31.1977 46C31.8277 42.67 32.1427 38.23 32.1427 32.68C32.1427 26.56 31.8727 21.895 31.3327 18.685C30.7927 15.475 29.8627 13.285 28.5427 12.115C27.2527 10.945 25.4227 10.36 23.0527 10.36ZM30.1177 12.34L33.7627 20.125L17.1127 54.505L13.0177 48.115L30.1177 12.34ZM100.238 1.63V43.12C100.238 47.38 99.3676 51.205 97.6276 54.595C95.9176 57.955 93.3376 60.625 89.8876 62.605C86.4676 64.555 82.1776 65.53 77.0176 65.53C71.8276 65.53 67.5076 64.585 64.0576 62.695C60.6376 60.805 58.0726 58.18 56.3626 54.82C54.6526 51.46 53.7976 47.56 53.7976 43.12V1.63H68.6026V37.63C68.6026 43.24 69.1126 47.47 70.1326 50.32C71.1526 53.14 73.4476 54.55 77.0176 54.55C80.5876 54.55 82.8826 53.14 83.9026 50.32C84.9226 47.47 85.4326 43.24 85.4326 37.63V1.63H100.238ZM151.232 1.63V12.43H138.362V53.155H151.232V64H110.732V53.155H123.602V12.43H110.732V1.63H151.232Z" fill="#B57EDC"/>
</svg>
