<svg width="211" height="72" viewBox="0 0 211 72" fill="none" xmlns="http://www.w3.org/2000/svg">
<g filter="url(#filter0_d_2_3)">
<path d="M22.5703 0.0549945C30.0103 0.0549945 35.6203 2.93499 39.4003 8.695C43.2103 14.425 45.1153 22.42 45.1153 32.68C45.1153 42.97 43.2103 51.025 39.4003 56.845C35.6203 62.635 30.0103 65.53 22.5703 65.53C15.0703 65.53 9.43031 62.635 5.65031 56.845C1.90031 51.025 0.0253128 42.97 0.0253128 32.68C0.0253128 22.42 1.90031 14.425 5.65031 8.695C9.43031 2.93499 15.0703 0.0549945 22.5703 0.0549945ZM22.5703 10.36C19.3903 10.36 17.0653 12.07 15.5953 15.49C14.1253 18.88 13.3903 24.61 13.3903 32.68C13.3903 37.36 13.5253 41.185 13.7953 44.155C14.0953 47.095 14.5903 49.375 15.2803 50.995C15.9703 52.615 16.9003 53.74 18.0703 54.37C19.2703 54.97 20.7703 55.27 22.5703 55.27C24.7003 55.27 26.4253 54.55 27.7453 53.11C29.0953 51.67 30.0853 49.3 30.7153 46C31.3453 42.67 31.6603 38.23 31.6603 32.68C31.6603 26.56 31.3903 21.895 30.8503 18.685C30.3103 15.475 29.3803 13.285 28.0603 12.115C26.7703 10.945 24.9403 10.36 22.5703 10.36ZM29.6353 12.34L33.2803 20.125L16.6303 54.505L12.5353 48.115L29.6353 12.34ZM57.0502 41.365V30.295H96.0202V41.365H57.0502ZM153.72 1.63V43.12C153.72 47.38 152.85 51.205 151.11 54.595C149.4 57.955 146.82 60.625 143.37 62.605C139.95 64.555 135.66 65.53 130.5 65.53C125.31 65.53 120.99 64.585 117.54 62.695C114.12 60.805 111.555 58.18 109.845 54.82C108.135 51.46 107.28 47.56 107.28 43.12V1.63H122.085V37.63C122.085 43.24 122.595 47.47 123.615 50.32C124.635 53.14 126.93 54.55 130.5 54.55C134.07 54.55 136.365 53.14 137.385 50.32C138.405 47.47 138.915 43.24 138.915 37.63V1.63H153.72ZM204.715 1.63V12.43H191.845V53.155H204.715V64H164.215V53.155H177.085V12.43H164.215V1.63H204.715Z" fill="#FF3E00"/>
</g>
<defs>
<filter id="filter0_d_2_3" x="0.0252991" y="0.0549927" width="210.69" height="71.475" filterUnits="userSpaceOnUse" color-interpolation-filters="sRGB">
<feFlood flood-opacity="0" result="BackgroundImageFix"/>
<feColorMatrix in="SourceAlpha" type="matrix" values="0 0 0 0 0 0 0 0 0 0 0 0 0 0 0 0 0 0 127 0" result="hardAlpha"/>
<feOffset dx="4" dy="4"/>
<feGaussianBlur stdDeviation="1"/>
<feComposite in2="hardAlpha" operator="out"/>
<feColorMatrix type="matrix" values="0 0 0 0 0 0 0 0 0 0 0 0 0 0 0 0 0 0 0.4 0"/>
<feBlend mode="normal" in2="BackgroundImageFix" result="effect1_dropShadow_2_3"/>
<feBlend mode="normal" in="SourceGraphic" in2="effect1_dropShadow_2_3" result="shape"/>
</filter>
</defs>
</svg>
